<?xml version="1.0" standalone="no"?>
<!DOCTYPE svg PUBLIC "-//W3C//DTD SVG 20010904//EN"
 "http://www.w3.org/TR/2001/REC-SVG-20010904/DTD/svg10.dtd">
<svg version="1.0" xmlns="http://www.w3.org/2000/svg"
 width="309.000000pt" height="309.000000pt" viewBox="0 0 309.000000 309.000000"
 preserveAspectRatio="xMidYMid meet">
<metadata>
Created by potrace 1.14, written by Peter Selinger 2001-2017
</metadata>
<g transform="translate(0.000000,309.000000) scale(0.100000,-0.100000)"
fill="#000000" stroke="none">
<path d="M1335 3075 c-44 -7 -93 -16 -110 -19 -106 -21 -312 -97 -397 -147
-27 -16 -51 -29 -54 -29 -3 0 -47 -28 -97 -62 -106 -73 -282 -242 -355 -343
-29 -38 -55 -75 -59 -80 -64 -85 -190 -376 -210 -484 -2 -14 -8 -44 -13 -66
-24 -107 -33 -359 -17 -483 58 -460 340 -896 732 -1127 198 -117 408 -189 620
-213 94 -10 323 -6 400 7 39 7 81 14 95 16 69 12 240 70 332 113 89 42 242
132 258 151 3 3 23 19 45 36 79 59 199 182 276 285 156 207 264 472 297 730
14 106 7 350 -12 455 -58 314 -194 580 -410 804 -222 229 -496 378 -811 443
-125 25 -391 32 -510 13z"/>
</g>
</svg>
