<svg width="44" height="44" viewBox="0 0 44 44" fill="none" xmlns="http://www.w3.org/2000/svg">
<path d="M24.1904 14.6856V14.3273L23.0768 14.4038C22.7614 14.4237 22.5247 14.4907 22.3654 14.6039C22.2062 14.7181 22.1266 14.8762 22.1266 15.0784C22.1266 15.2754 22.2051 15.4325 22.3633 15.5488C22.5205 15.6662 22.7321 15.7238 22.9961 15.7238C23.1648 15.7238 23.323 15.6976 23.4686 15.6462C23.6142 15.5949 23.742 15.5226 23.8489 15.4304C23.9557 15.3393 24.0395 15.2303 24.0992 15.1036C24.16 14.9768 24.1904 14.8375 24.1904 14.6856ZM21.9998 0.261963C9.86943 0.261963 0.261719 9.86968 0.261719 22.0001C0.261719 34.1315 9.86943 43.7382 21.9998 43.7382C34.1302 43.7382 43.7379 34.1315 43.7379 22.0001C43.7379 9.86968 34.1312 0.261963 21.9998 0.261963ZM26.2196 13.1466C26.3223 12.8585 26.4669 12.6113 26.6544 12.406C26.8419 12.2006 27.0672 12.0424 27.3312 11.9314C27.5951 11.8203 27.8895 11.7648 28.2132 11.7648C28.5055 11.7648 28.7695 11.8088 29.0042 11.8958C29.2399 11.9827 29.4411 12.1001 29.6097 12.2478C29.7784 12.3955 29.9125 12.5673 30.011 12.7642C30.1094 12.9612 30.1681 13.1697 30.188 13.3886H29.3153C29.2933 13.2682 29.2535 13.155 29.197 13.0513C29.1404 12.9476 29.066 12.8575 28.9738 12.781C28.8806 12.7045 28.7716 12.6448 28.647 12.6019C28.5212 12.5579 28.3809 12.5369 28.2227 12.5369C28.0372 12.5369 27.8686 12.5746 27.7188 12.649C27.5679 12.7234 27.4391 12.8292 27.3322 12.9654C27.2253 13.1016 27.1426 13.2682 27.0839 13.463C27.0242 13.6589 26.9949 13.8758 26.9949 14.1146C26.9949 14.3619 27.0242 14.584 27.0839 14.7788C27.1426 14.9747 27.2264 15.1392 27.3353 15.2743C27.4432 15.4095 27.5742 15.5132 27.7261 15.5844C27.878 15.6557 28.0456 15.6923 28.2279 15.6923C28.5265 15.6923 28.7695 15.6222 28.9581 15.4818C29.1467 15.3414 29.2682 15.1361 29.3248 14.8658H30.1985C30.1733 15.1046 30.1073 15.3225 30.0005 15.5195C29.8936 15.7164 29.7553 15.8841 29.5856 16.0234C29.4149 16.1627 29.2148 16.2706 28.9843 16.3461C28.7538 16.4215 28.5003 16.4602 28.2248 16.4602C27.8979 16.4602 27.6035 16.4058 27.3385 16.2979C27.0745 16.19 26.8471 16.0339 26.6586 15.8317C26.47 15.6295 26.3244 15.3833 26.2217 15.0931C26.1191 14.8029 26.0677 14.4771 26.0677 14.1136C26.0656 13.7584 26.117 13.4358 26.2196 13.1466ZM13.8022 11.8245H14.6759V12.6008H14.6927C14.7461 12.472 14.8163 12.3557 14.9022 12.2551C14.9881 12.1535 15.0866 12.0676 15.1997 11.9953C15.3118 11.923 15.4365 11.8685 15.5706 11.8308C15.7057 11.7931 15.8482 11.7743 15.997 11.7743C16.3175 11.7743 16.5889 11.8507 16.8089 12.0037C17.0299 12.1566 17.1871 12.3766 17.2792 12.6637H17.3012C17.3599 12.5254 17.4374 12.4018 17.5328 12.2928C17.6281 12.1839 17.7381 12.0896 17.8617 12.0121C17.9853 11.9345 18.1215 11.8759 18.2692 11.835C18.417 11.7942 18.572 11.7743 18.7354 11.7743C18.9607 11.7743 19.165 11.8099 19.3493 11.8822C19.5337 11.9544 19.6909 12.055 19.8218 12.186C19.9528 12.3169 20.0533 12.4762 20.1235 12.6626C20.1937 12.8491 20.2293 13.0565 20.2293 13.2849V16.4079H19.3179V13.5039C19.3179 13.2032 19.2404 12.9696 19.0853 12.8051C18.9313 12.6406 18.7103 12.5579 18.4232 12.5579C18.2829 12.5579 18.154 12.583 18.0367 12.6322C17.9204 12.6815 17.8188 12.7506 17.735 12.8397C17.6501 12.9277 17.5841 13.0345 17.537 13.1582C17.4888 13.2818 17.4647 13.4169 17.4647 13.5636V16.4079H16.5658V13.4284C16.5658 13.2964 16.5449 13.177 16.504 13.0702C16.4631 12.9633 16.4055 12.8722 16.3291 12.7957C16.2536 12.7192 16.1604 12.6616 16.0525 12.6207C15.9435 12.5799 15.822 12.5589 15.6869 12.5589C15.5465 12.5589 15.4166 12.5851 15.2961 12.6375C15.1767 12.6899 15.074 12.7622 14.9881 12.8543C14.9022 12.9476 14.8351 13.0565 14.788 13.1833C14.7419 13.309 14.6665 13.4473 14.6665 13.5961V16.4068H13.8022V11.8245ZM15.7853 33.7606C11.7782 33.7606 9.26496 30.9761 9.26496 26.5321C9.26496 22.0881 11.7782 19.2941 15.7853 19.2941C19.7925 19.2941 22.2963 22.0881 22.2963 26.5321C22.2963 30.975 19.7925 33.7606 15.7853 33.7606ZM23.2046 16.3963C23.0569 16.4341 22.906 16.4529 22.751 16.4529C22.5226 16.4529 22.3141 16.4204 22.1245 16.3555C21.9338 16.2905 21.7714 16.1994 21.6352 16.081C21.4991 15.9626 21.3922 15.8202 21.3168 15.6525C21.2403 15.4849 21.2026 15.2984 21.2026 15.0931C21.2026 14.6908 21.3524 14.3765 21.652 14.1502C21.9516 13.924 22.3853 13.792 22.9542 13.7553L24.1904 13.6841V13.33C24.1904 13.066 24.1066 12.8638 23.939 12.7265C23.7713 12.5893 23.5346 12.5202 23.2276 12.5202C23.104 12.5202 22.9877 12.5359 22.8809 12.5662C22.774 12.5977 22.6797 12.6417 22.598 12.6993C22.5163 12.7569 22.4482 12.8261 22.3958 12.9067C22.3424 12.9863 22.3057 13.0764 22.2858 13.1749H21.4289C21.4341 12.9727 21.4844 12.7852 21.5787 12.6134C21.673 12.4416 21.8008 12.2928 21.9631 12.1661C22.1255 12.0393 22.3151 11.9408 22.5351 11.8706C22.7551 11.8004 22.994 11.7648 23.2528 11.7648C23.5314 11.7648 23.7839 11.7994 24.0102 11.8706C24.2365 11.9419 24.4303 12.0414 24.5906 12.1723C24.7509 12.3033 24.8745 12.4604 24.9614 12.6448C25.0484 12.8292 25.0924 13.0356 25.0924 13.2629V16.4068H24.2197V15.6431H24.1977C24.1328 15.7667 24.0511 15.8788 23.9515 15.9783C23.851 16.0779 23.7389 16.1638 23.6142 16.234C23.4885 16.3042 23.3523 16.3586 23.2046 16.3963ZM28.9696 33.7606C25.9137 33.7606 23.8363 32.1599 23.6917 29.6466H25.6811C25.8362 31.0829 27.2243 32.0342 29.1257 32.0342C30.9496 32.0342 32.2602 31.0829 32.2602 29.7828C32.2602 28.6577 31.464 27.9778 29.6212 27.5126L27.8256 27.0663C25.2443 26.4263 24.071 25.2519 24.071 23.3211C24.071 20.9441 26.1473 19.2941 29.1069 19.2941C31.9983 19.2941 34.016 20.9535 34.0935 23.34H32.124C31.9878 21.9037 30.8145 21.0205 29.0671 21.0205C27.3301 21.0205 26.1274 21.9131 26.1274 23.2038C26.1274 24.2221 26.8838 24.8244 28.7276 25.2896L30.2414 25.6678C33.1234 26.3665 34.3072 27.5022 34.3072 29.5398C34.3062 32.14 32.2497 33.7606 28.9696 33.7606ZM15.7853 21.0782C13.0395 21.0782 11.3225 23.1839 11.3225 26.531C11.3225 29.8687 13.0395 31.9744 15.7853 31.9744C18.5217 31.9744 20.2482 29.8687 20.2482 26.531C20.2492 23.1839 18.5217 21.0782 15.7853 21.0782Z" fill="white"/>
</svg>
